<svg width="323" height="69" viewBox="0 0 323 69" fill="none" xmlns="http://www.w3.org/2000/svg">
<path d="M10.8558 20.5841C10.8558 23.9548 13.7079 27.0662 17.3379 27.0662C20.9679 27.0662 23.82 24.2141 23.82 20.5841C23.82 16.8677 20.9679 14.102 17.3379 14.102C13.7079 14.102 10.8558 17.2134 10.8558 20.5841ZM50.7856 0.273438H40.3278C40.0685 0.273438 39.7228 0.53272 39.7228 0.878433V67.9467C39.7228 68.206 39.9821 68.5517 40.3278 68.5517H50.7856C60.3791 68.5517 68.3305 60.6004 68.3305 51.2661V17.8184C68.3305 8.1384 60.3791 0.273438 50.7856 0.273438ZM53.292 44.4383C49.5756 44.4383 46.4642 41.3269 46.4642 37.6104C46.4642 33.894 49.5756 30.7826 53.292 30.7826C57.0084 30.7826 60.1199 33.894 60.1199 37.6104C60.1199 41.3269 57.0084 44.4383 53.292 44.4383ZM32.6357 0.273438H17.9429C8.34934 0.273438 0.657227 8.22482 0.657227 17.8184V50.9204C0.657227 60.5139 8.60862 68.206 17.9429 68.206H32.6357C32.895 68.206 33.2407 67.9467 33.2407 67.601V0.791999C33.2407 0.532714 32.895 0.273438 32.6357 0.273438ZM27.5364 62.8475H17.5972C14.4857 62.8475 11.3743 61.7239 9.1272 59.4768C6.88006 57.2296 5.75649 54.1182 5.75649 51.0068V17.9048C5.75649 14.7934 6.88006 11.682 9.1272 9.43482C11.3743 7.18769 14.4857 6.06413 17.5972 6.06413H27.5364V62.8475ZM139.375 8.1384L148.709 20.8433H152.425V1.56986H148.709V14.0155L139.375 1.56986H135.399V20.5841H139.375V8.1384ZM100.568 44.6975C95.469 43.8333 92.0983 42.969 92.0983 40.4626C92.0983 37.6104 95.8147 36.4869 100.914 36.4869C105.408 36.4869 110.248 38.2154 111.977 38.9933L114.483 32.7704C112.755 31.9062 106.878 29.9183 100.568 29.9183C92.9626 29.9183 84.4062 33.6347 84.4062 40.7218C84.4062 46.4261 88.3819 49.1918 98.8397 51.1797C106.186 52.3032 110.162 53.1675 109.903 56.2789C109.903 58.0075 108.52 60.7732 100.309 60.7732C93.8269 60.7732 88.9869 58.5261 87.604 57.4025L84.2333 63.6253C85.9619 64.4896 92.1847 67.3418 100.05 67.3418C111.372 67.3418 117.595 63.3661 117.595 56.0197C116.99 51.7847 115.607 47.204 100.568 44.6975ZM89.5919 8.1384L98.9261 20.8433H102.643V1.56986H98.6669V14.0155L89.3326 1.56986H85.3569V20.5841H89.3326L89.5919 8.1384ZM157.524 56.6246L149.919 30.6097H143.437L135.831 56.6246L129.003 30.6097H121.052L131.25 66.5639H140.066L146.894 42.7961L153.722 66.5639H162.537L172.736 30.6097H164.784L157.524 56.6246ZM121.311 1.65628H117.076V20.6705H121.311V1.65628ZM181.292 66.4775H189.244V30.5233H181.292V66.4775ZM300.563 1.05129C294.859 1.05129 290.365 5.54556 290.365 11.2498C290.365 16.9541 294.859 21.4484 300.563 21.4484C306.267 21.4484 310.762 16.9541 310.762 11.2498C310.416 5.63199 305.922 1.05129 300.563 1.05129ZM300.563 17.2134C297.193 17.2134 294.6 14.707 294.6 11.2498C294.6 7.79269 297.106 5.28627 300.563 5.28627C303.934 5.28627 306.527 7.79269 306.527 11.2498C306.44 14.3612 303.675 17.2134 300.563 17.2134ZM301.687 44.6975H285.006V30.5233H277.66V66.4775H285.006V52.0439H301.687V66.4775H309.033V30.5233H301.687V44.6975ZM321.22 61.7239L320.096 65.4403L318.972 61.7239H317.59V66.5639H318.454V62.8475L319.837 66.5639H320.701L322.084 62.8475V66.5639H322.948V61.7239H321.22ZM268.239 1.65628H260.288V20.6705H268.239C273.598 20.6705 278.178 16.4355 278.178 11.077C277.833 5.89127 273.598 1.65628 268.239 1.65628ZM268.239 16.6948H264.004V5.63199H268.239C271.35 5.63199 273.943 8.1384 273.943 11.3362C273.943 14.5341 271.35 16.6948 268.239 16.6948ZM312.404 62.5018H313.787V66.4775H314.651V62.5018H316.034V61.6375H312.058V62.5018H312.404ZM253.546 37.3511C257.522 37.3511 261.498 39.5983 263.485 43.0554L269.449 37.9561C265.733 32.5976 259.856 29.4862 253.633 29.4862C243.175 29.4862 234.359 37.9561 234.359 48.7597C234.359 59.2175 242.829 68.0332 253.633 68.0332C260.115 68.0332 266.078 64.9218 269.449 59.5632L263.485 54.4639C261.498 57.8346 257.522 60.1682 253.546 60.1682C247.323 60.1682 242.224 55.0689 242.224 48.8461C242.224 42.6233 247.323 37.3511 253.546 37.3511ZM211.369 17.2134H200.306V12.7191H210.505V9.3484H200.306V5.3727H211.369V1.65628H196.676V20.6705H211.369V17.2134ZM198.059 38.2154H209.641V66.5639H217.246V38.2154H228.568V30.6097H197.973V38.2154H198.059ZM182.416 1.65628H166.254V5.63199H172.477V20.6705H176.452V5.63199H182.416V1.65628ZM244.212 20.9298V1.65628H240.236V14.102L230.902 1.65628H226.926V20.6705H230.902V7.96555L240.236 20.6705L244.212 20.9298Z" fill="white"/>
</svg>
